<svg width="384" height="60" viewBox="0 0 384 60" fill="none" xmlns="http://www.w3.org/2000/svg">
<path fill-rule="evenodd" clip-rule="evenodd" d="M382.957 58.0993L383.459 59.6733L381.839 59.3785C381.827 59.3764 381.814 59.3741 381.801 59.3715L376.821 58.4651C376.278 58.3662 375.917 57.8456 376.016 57.3022C376.115 56.7589 376.636 56.3986 377.179 56.4975L378.125 56.6696C377.87 56.4766 377.615 56.2841 377.36 56.0923C376.919 55.7602 376.83 55.1333 377.162 54.692C377.494 54.2506 378.121 54.162 378.563 54.4941C379.066 54.8726 379.568 55.2534 380.07 55.6365L379.797 54.7826C379.629 54.2565 379.92 53.6937 380.446 53.5257C380.972 53.3576 381.535 53.6479 381.703 54.174L382.948 58.073C382.951 58.0817 382.954 58.0905 382.957 58.0993ZM367.179 54.6774C367.722 54.7763 368.083 55.297 367.984 55.8403C367.885 56.3837 367.364 56.744 366.821 56.6451L361.821 55.7351C361.278 55.6362 360.917 55.1156 361.016 54.5722C361.115 54.0289 361.636 53.6685 362.179 53.7674L367.179 54.6774ZM379.203 46.3479C379.371 46.874 379.08 47.4367 378.554 47.6048C378.028 47.7728 377.466 47.4826 377.297 46.9565L376.047 43.0434C375.879 42.5173 376.17 41.9546 376.696 41.7866C377.222 41.6185 377.785 41.9087 377.953 42.4348L379.203 46.3479ZM1.51745 59.247C1.04484 59.5328 0.43006 59.3813 0.144296 58.9087C-0.141469 58.4361 0.00999671 57.8213 0.482603 57.5356C1.87785 56.6919 3.31249 55.8419 4.78544 54.9868C5.26307 54.7095 5.87505 54.8719 6.15234 55.3495C6.42963 55.8271 6.26722 56.4391 5.7896 56.7164C4.32668 57.5657 2.90228 58.4097 1.51745 59.247ZM14.5989 51.7941C14.1126 52.0559 13.5062 51.8739 13.2444 51.3876C12.9826 50.9013 13.1646 50.2949 13.6509 50.0331C16.5386 48.4785 19.5422 46.9156 22.6556 45.3521C23.1492 45.1042 23.7502 45.3034 23.998 45.797C24.2459 46.2905 24.0467 46.8915 23.5532 47.1394C20.4564 48.6946 17.4696 50.2487 14.5989 51.7941ZM370.379 48.5731C370.832 48.8884 370.944 49.5115 370.629 49.965C370.314 50.4184 369.69 50.5305 369.237 50.2152C366.455 48.2809 363.656 46.4141 360.842 44.6131C360.377 44.3153 360.241 43.6969 360.539 43.2317C360.837 42.7666 361.455 42.6308 361.92 42.9286C364.756 44.7433 367.576 46.6242 370.379 48.5731ZM32.6228 42.7335C32.123 42.9684 31.5274 42.7536 31.2925 42.2538C31.0576 41.754 31.2723 41.1583 31.7722 40.9234C34.7606 39.519 37.8336 38.1198 40.9866 36.7313C41.492 36.5087 42.0822 36.738 42.3048 37.2435C42.5274 37.7489 42.2981 38.3391 41.7926 38.5617C38.6546 39.9436 35.5965 41.3361 32.6228 42.7335ZM353.286 37.6326C353.762 37.9123 353.922 38.5251 353.642 39.0013C353.362 39.4775 352.749 39.6369 352.273 39.3572C349.371 37.6528 346.454 36.0152 343.523 34.4429C343.037 34.1818 342.854 33.5756 343.115 33.089C343.376 32.6023 343.982 32.4195 344.469 32.6806C347.422 34.265 350.361 35.9151 353.286 37.6326ZM51.0543 34.6131C50.5438 34.8237 49.9592 34.5806 49.7485 34.0701C49.5379 33.5596 49.781 32.9749 50.2915 32.7643C53.3578 31.4991 56.4894 30.2478 59.6825 29.0148C60.1977 28.8159 60.7767 29.0723 60.9756 29.5875C61.1745 30.1027 60.9182 30.6816 60.4029 30.8806C57.224 32.108 54.1066 33.3537 51.0543 34.6131ZM335.425 28.0511C335.922 28.2932 336.128 28.8918 335.886 29.3882C335.643 29.8846 335.045 30.0908 334.548 29.8487C331.52 28.3715 328.478 26.9609 325.426 25.6153C324.921 25.3925 324.692 24.8022 324.915 24.2968C325.137 23.7915 325.728 23.5624 326.233 23.7852C329.309 25.1412 332.373 26.5625 335.425 28.0511ZM69.8347 27.36C69.3152 27.5474 68.7422 27.278 68.5548 26.7585C68.3675 26.2389 68.6368 25.6659 69.1564 25.4786C72.2899 24.3488 75.4755 23.2393 78.7101 22.1539C79.2337 21.9782 79.8006 22.2603 79.9763 22.7839C80.152 23.3075 79.87 23.8743 79.3464 24.05C76.126 25.1307 72.9544 26.2353 69.8347 27.36ZM316.899 19.8814C317.412 20.0847 317.664 20.6658 317.46 21.1793C317.257 21.6928 316.676 21.9442 316.163 21.7409C313.027 20.4992 309.882 19.3232 306.728 18.2108C306.207 18.0271 305.934 17.456 306.118 16.9351C306.301 16.4143 306.872 16.141 307.393 16.3247C310.571 17.4454 313.74 18.6303 316.899 19.8814ZM88.9343 20.9511C88.4069 21.1151 87.8465 20.8205 87.6825 20.2931C87.5185 19.7658 87.8131 19.2053 88.3405 19.0413C91.5334 18.0485 94.7687 17.0813 98.0437 16.1429C98.5746 15.9908 99.1283 16.2979 99.2804 16.8288C99.4325 17.3597 99.1255 17.9135 98.5945 18.0656C95.3341 18.9997 92.1131 19.9627 88.9343 20.9511ZM108.323 15.397C107.788 15.537 107.242 15.2175 107.102 14.6832C106.962 14.149 107.281 13.6024 107.816 13.4623C111.06 12.6119 114.339 11.7916 117.65 11.0046C118.187 10.8769 118.726 11.2089 118.854 11.7462C118.982 12.2836 118.649 12.8227 118.112 12.9504C114.816 13.7338 111.552 14.5504 108.323 15.397ZM297.771 13.1323C298.298 13.2964 298.593 13.8569 298.429 14.3842C298.264 14.9116 297.704 15.206 297.177 15.0419C293.965 14.0427 290.748 13.1069 287.524 12.2324C286.991 12.0878 286.676 11.5385 286.821 11.0055C286.966 10.4725 287.515 10.1576 288.048 10.3022C291.295 11.183 294.536 12.1256 297.771 13.1323ZM127.926 10.7381C127.385 10.8532 126.854 10.5087 126.739 9.96855C126.624 9.4284 126.968 8.89719 127.509 8.78205C130.788 8.08315 134.095 7.41847 137.428 6.79081C137.97 6.68859 138.493 7.04572 138.595 7.58847C138.698 8.13121 138.34 8.65405 137.798 8.75626C134.481 9.38093 131.189 10.0425 127.926 10.7381ZM278.223 7.82685C278.761 7.95213 279.096 8.48973 278.97 9.02762C278.845 9.56551 278.307 9.89999 277.769 9.77472C274.49 9.01099 271.208 8.30837 267.923 7.66478C267.381 7.55859 267.028 7.03314 267.134 6.49116C267.24 5.94918 267.765 5.59591 268.307 5.7021C271.615 6.35016 274.921 7.0577 278.223 7.82685ZM147.722 7.01216C147.177 7.10106 146.663 6.73126 146.574 6.18618C146.485 5.64109 146.855 5.12715 147.4 5.03824C150.718 4.49707 154.059 3.99419 157.42 3.53223C157.968 3.45704 158.472 3.83963 158.547 4.38677C158.622 4.93391 158.24 5.43842 157.693 5.51361C154.348 5.97325 151.024 6.47364 147.722 7.01216ZM258.333 3.92649C258.878 4.01393 259.249 4.52689 259.162 5.07221C259.074 5.61752 258.561 5.9887 258.016 5.90126C254.697 5.36908 251.378 4.89492 248.061 4.47662C247.513 4.40753 247.125 3.90732 247.194 3.35938C247.263 2.81143 247.763 2.42324 248.311 2.49232C251.65 2.91338 254.992 3.39071 258.333 3.92649ZM167.693 4.26982C167.144 4.33088 166.649 3.93541 166.588 3.38651C166.527 2.83761 166.923 2.34314 167.472 2.28208C170.811 1.91066 174.167 1.58121 177.54 1.29626C178.09 1.24976 178.574 1.65819 178.62 2.20851C178.667 2.75883 178.259 3.24266 177.708 3.28915C174.354 3.5726 171.014 3.90031 167.693 4.26982ZM238.236 1.38981C238.786 1.44094 239.19 1.92819 239.139 2.4781C239.088 3.02802 238.601 3.43235 238.051 3.38122C234.7 3.06962 231.352 2.81297 228.009 2.60902C227.458 2.57539 227.038 2.10123 227.072 1.54998C227.106 0.998718 227.58 0.579098 228.131 0.612736C231.494 0.817947 234.863 1.07622 238.236 1.38981ZM187.753 2.57771C187.202 2.60917 186.729 2.18768 186.698 1.63629C186.667 1.0849 187.088 0.612411 187.639 0.580959C191.001 0.38921 194.376 0.243309 197.762 0.145676C198.314 0.129757 198.774 0.564384 198.79 1.11644C198.806 1.6685 198.372 2.12893 197.82 2.14484C194.452 2.24193 191.096 2.38701 187.753 2.57771ZM218.014 0.152626C218.566 0.16925 219 0.630241 218.984 1.18228C218.967 1.73431 218.506 2.16835 217.954 2.15172C214.593 2.0505 211.239 2.00068 207.895 1.99997C207.342 1.99985 206.895 1.55204 206.895 0.999752C206.895 0.447464 207.343 -0.000152588 207.895 -3.43323e-05C211.259 0.000682831 214.633 0.0507965 218.014 0.152626Z" fill="#C3C3D0"/>
</svg>
