<svg width="25" height="25" viewBox="0 0 25 25" fill="none" xmlns="http://www.w3.org/2000/svg">
<path d="M22.0627 11.8514L11.9431 3.06835C11.8654 3.00138 11.7663 2.96388 11.6618 2.96388H9.29128C9.09307 2.96388 9.002 3.21031 9.152 3.33888L18.5324 11.4817H2.85735C2.73949 11.4817 2.64307 11.5782 2.64307 11.696V13.3032C2.64307 13.421 2.73949 13.5175 2.85735 13.5175H18.5297L9.14932 21.6603C8.99932 21.7916 9.09039 22.0353 9.2886 22.0353H11.7395C11.7904 22.0353 11.8413 22.0166 11.8788 21.9817L22.0627 13.1478C22.1554 13.0672 22.2298 12.9676 22.2807 12.8558C22.3317 12.7439 22.3581 12.6225 22.3581 12.4996C22.3581 12.3767 22.3317 12.2553 22.2807 12.1434C22.2298 12.0316 22.1554 11.932 22.0627 11.8514Z" fill="#FCFCFC"/>
</svg>
