<svg width="401" height="61" viewBox="0 0 401 61" fill="none" xmlns="http://www.w3.org/2000/svg">
<path fill-rule="evenodd" clip-rule="evenodd" d="M399.952 2.17545L400.481 0.598145L398.848 0.881228C398.835 0.883241 398.822 0.88552 398.809 0.888067L393.579 1.79452C393.035 1.88884 392.67 2.40645 392.765 2.95062C392.859 3.49479 393.377 3.85946 393.921 3.76513L394.996 3.57874C394.783 3.73362 394.569 3.88813 394.355 4.04225C393.907 4.36533 393.806 4.99035 394.129 5.43828C394.452 5.88621 395.077 5.98742 395.525 5.66434C396.031 5.29929 396.537 4.93211 397.042 4.5628L396.739 5.46486C396.564 5.98847 396.846 6.55532 397.369 6.73095C397.893 6.90658 398.46 6.62448 398.635 6.10087L399.943 2.20189C399.946 2.19312 399.949 2.1843 399.952 2.17545ZM383.421 5.58516C383.965 5.49083 384.33 4.97323 384.235 4.42906C384.141 3.88489 383.623 3.52022 383.079 3.61454L377.829 4.52455C377.285 4.61888 376.92 5.13648 377.015 5.68065C377.109 6.22482 377.627 6.58949 378.171 6.49517L383.421 5.58516ZM396.01 13.927C396.186 13.4033 395.904 12.8365 395.38 12.6609C394.857 12.4852 394.29 12.7673 394.114 13.291L392.802 17.204C392.626 17.7276 392.908 18.2945 393.432 18.4701C393.956 18.6457 394.522 18.3636 394.698 17.84L396.01 13.927ZM1.50088 1.00436C1.0229 0.727687 0.411124 0.890884 0.134451 1.36887C-0.142221 1.84686 0.0209759 2.45863 0.498962 2.7353C1.8955 3.54365 3.32983 4.35789 4.80096 5.17685C5.28351 5.44548 5.89246 5.27206 6.16109 4.78951C6.42972 4.30696 6.2563 3.69801 5.77375 3.42938C4.31215 2.61572 2.88753 1.80699 1.50088 1.00436ZM14.5747 8.15188C14.0842 7.89795 13.4808 8.08969 13.2269 8.58014C12.9729 9.07059 13.1647 9.67403 13.6551 9.92795C16.5376 11.4203 19.5322 12.9208 22.6333 14.4226C23.1304 14.6633 23.7285 14.4555 23.9692 13.9584C24.2099 13.4614 24.0021 12.8633 23.505 12.6226C20.4196 11.1283 17.4409 9.63587 14.5747 8.15188ZM387.303 11.3757C387.762 11.0687 387.886 10.4477 387.579 9.98857C387.272 9.52944 386.651 9.40608 386.192 9.71303C383.406 11.5756 380.604 13.3761 377.787 15.1158C377.317 15.4061 377.172 16.0222 377.462 16.4921C377.752 16.962 378.368 17.1076 378.838 16.8174C381.675 15.0651 384.497 13.2516 387.303 11.3757ZM32.5409 16.8611C32.0381 16.6326 31.4453 16.855 31.2168 17.3578C30.9883 17.8606 31.2107 18.4534 31.7135 18.6819C34.6896 20.0343 37.748 21.3827 40.8847 22.7221C41.3926 22.939 41.9801 22.7031 42.197 22.1951C42.4139 21.6872 42.178 21.0997 41.6701 20.8828C38.5474 19.5493 35.503 18.2071 32.5409 16.8611ZM370.217 21.93C370.697 21.6569 370.865 21.0463 370.592 20.5663C370.319 20.0863 369.708 19.9186 369.228 20.1917C366.327 21.8424 363.412 23.4316 360.483 24.9605C359.994 25.2162 359.804 25.8203 360.06 26.3098C360.315 26.7994 360.919 26.989 361.409 26.7334C364.359 25.1934 367.295 23.5927 370.217 21.93ZM50.886 24.6985C50.3735 24.4928 49.7912 24.7416 49.5855 25.2541C49.3798 25.7667 49.6285 26.3489 50.1411 26.5546C53.1909 27.7786 56.3047 28.9908 59.4791 30.1872C59.9959 30.3819 60.5728 30.1209 60.7675 29.6041C60.9623 29.0873 60.7012 28.5104 60.1844 28.3157C57.0233 27.1243 53.9227 25.9173 50.886 24.6985ZM352.419 31.223C352.917 30.9852 353.129 30.3883 352.891 29.8898C352.653 29.3914 352.056 29.1801 351.558 29.4179C348.55 30.8526 345.531 32.2266 342.501 33.5413C341.994 33.7612 341.761 34.3501 341.981 34.8567C342.201 35.3634 342.79 35.5959 343.297 35.3761C346.349 34.0519 349.39 32.6681 352.419 31.223ZM69.562 31.7386C69.0412 31.5546 68.4699 31.8276 68.286 32.3483C68.102 32.8691 68.375 33.4404 68.8957 33.6243C72.0093 34.7243 75.1743 35.8067 78.3879 36.8682C78.9123 37.0414 79.4779 36.7567 79.6511 36.2322C79.8243 35.7078 79.5396 35.1423 79.0152 34.9691C75.8148 33.912 72.6627 32.834 69.562 31.7386ZM334.019 39.207C334.533 39.0053 334.786 38.425 334.584 37.9108C334.383 37.3967 333.802 37.1434 333.288 37.3451C330.182 38.5637 327.066 39.7225 323.941 40.8232C323.421 41.0067 323.147 41.5777 323.331 42.0987C323.514 42.6196 324.085 42.8931 324.606 42.7096C327.752 41.6012 330.89 40.4342 334.019 39.207ZM88.5403 38.0072C88.0125 37.8448 87.4529 38.141 87.2905 38.6689C87.128 39.1968 87.4243 39.7563 87.9521 39.9188C91.1169 40.8926 94.3237 41.8442 97.5698 42.7705C98.1009 42.9221 98.6543 42.6144 98.8058 42.0834C98.9574 41.5523 98.6497 40.9989 98.1187 40.8473C94.8858 39.9247 91.6922 38.977 88.5403 38.0072ZM107.726 43.4827C107.192 43.3421 106.645 43.6611 106.505 44.1951C106.364 44.7292 106.683 45.2762 107.217 45.4168C110.421 46.2602 113.66 47.0776 116.931 47.8661C117.468 47.9955 118.008 47.6652 118.137 47.1283C118.267 46.5914 117.936 46.0512 117.399 45.9218C114.142 45.1366 110.917 44.3226 107.726 43.4827ZM315.093 45.8767C315.62 45.7113 315.913 45.15 315.748 44.6231C315.582 44.0961 315.021 43.8031 314.494 43.9685C311.315 44.9665 308.128 45.9067 304.935 46.7907C304.403 46.9381 304.091 47.489 304.238 48.0213C304.386 48.5536 304.937 48.8656 305.469 48.7182C308.683 47.8282 311.892 46.8816 315.093 45.8767ZM127.133 48.16C126.593 48.042 126.06 48.3836 125.942 48.9232C125.824 49.4627 126.166 49.9958 126.706 50.1138C129.955 50.8247 133.232 51.5058 136.536 52.1545C137.078 52.2609 137.604 51.9079 137.71 51.3659C137.816 50.824 137.463 50.2984 136.921 50.192C133.632 49.5461 130.368 48.8679 127.133 48.16ZM295.749 51.2352C296.286 51.1057 296.616 50.5655 296.486 50.0286C296.357 49.4917 295.817 49.1615 295.28 49.291C292.043 50.072 288.801 50.7974 285.557 51.4689C285.017 51.5809 284.669 52.11 284.781 52.6509C284.893 53.1917 285.422 53.5393 285.963 53.4274C289.228 52.7515 292.49 52.0214 295.749 51.2352ZM146.725 52.0059C146.18 51.9114 145.663 52.2759 145.568 52.82C145.474 53.3642 145.838 53.8819 146.382 53.9764C149.656 54.545 152.952 55.0805 156.27 55.5805C156.817 55.6628 157.326 55.2868 157.408 54.7407C157.491 54.1946 157.115 53.6852 156.568 53.6029C153.266 53.1051 149.984 52.572 146.725 52.0059ZM276.111 55.3029C276.655 55.2083 277.019 54.6904 276.924 54.1463C276.83 53.6022 276.312 53.2378 275.768 53.3325C272.483 53.9038 269.198 54.4219 265.913 54.8886C265.366 54.9663 264.985 55.4725 265.063 56.0193C265.141 56.5661 265.647 56.9464 266.194 56.8687C269.499 56.3992 272.805 55.8779 276.111 55.3029ZM166.457 54.9778C165.909 54.908 165.408 55.2956 165.339 55.8435C165.269 56.3913 165.657 56.892 166.204 56.9617C169.511 57.3827 172.836 57.767 176.177 58.1127C176.727 58.1695 177.218 57.7702 177.275 57.2209C177.332 56.6715 176.932 56.1801 176.383 56.1233C173.057 55.7793 169.748 55.3967 166.457 54.9778ZM256.243 58.128C256.792 58.0669 257.188 57.5724 257.127 57.0235C257.066 56.4746 256.571 56.0792 256.022 56.1402C252.714 56.5083 249.408 56.826 246.105 57.0953C245.555 57.1402 245.145 57.6228 245.19 58.1733C245.235 58.7237 245.717 59.1336 246.268 59.0887C249.59 58.8179 252.915 58.4983 256.243 58.128ZM186.308 57.0295C185.757 56.9859 185.276 57.3969 185.232 57.9475C185.188 58.4981 185.599 58.9797 186.15 59.0232C189.47 59.2858 192.804 59.5088 196.152 59.6901C196.703 59.7199 197.174 59.2971 197.204 58.7456C197.234 58.1941 196.811 57.7229 196.26 57.693C192.929 57.5126 189.611 57.2908 186.308 57.0295ZM236.251 59.7602C236.802 59.7311 237.226 59.2605 237.197 58.709C237.167 58.1574 236.697 57.7339 236.145 57.763C232.817 57.9384 229.494 58.0663 226.178 58.1485C225.625 58.1622 225.189 58.6209 225.203 59.173C225.216 59.7251 225.675 60.1616 226.227 60.1479C229.562 60.0652 232.903 59.9366 236.251 59.7602ZM206.234 58.106C205.682 58.0902 205.221 58.525 205.206 59.0771C205.19 59.6291 205.625 60.0894 206.177 60.1052C209.51 60.2003 212.853 60.2527 216.206 60.2602C216.759 60.2615 217.207 59.8148 217.209 59.2625C217.21 58.7102 216.763 58.2615 216.211 58.2602C212.876 58.2527 209.549 58.2007 206.234 58.106Z" fill="#C3C3D0"/>
</svg>
