<svg width="24" height="25" viewBox="0 0 24 25" fill="none" xmlns="http://www.w3.org/2000/svg">
<g clip-path="url(#clip0_38_1767)">
<path d="M15.2139 22.202H8.7853C8.66744 22.202 8.57101 22.2985 8.57101 22.4163V23.2735C8.57101 23.7476 8.95405 24.1306 9.42815 24.1306H14.571C15.0451 24.1306 15.4282 23.7476 15.4282 23.2735V22.4163C15.4282 22.2985 15.3317 22.202 15.2139 22.202ZM11.9996 0.130615C7.14869 0.130615 3.21387 4.06544 3.21387 8.91633C3.21387 12.1681 4.98172 15.0074 7.60672 16.5261V19.6306C7.60672 20.1047 7.98976 20.4878 8.46387 20.4878H15.5353C16.0094 20.4878 16.3924 20.1047 16.3924 19.6306V16.5261C19.0174 15.0074 20.7853 12.1681 20.7853 8.91633C20.7853 4.06544 16.8505 0.130615 11.9996 0.130615ZM15.4255 14.8574L14.4639 15.4145V18.5592H9.5353V15.4145L8.57369 14.8574C6.46565 13.6387 5.14244 11.394 5.14244 8.91633C5.14244 5.12883 8.21208 2.05919 11.9996 2.05919C15.7871 2.05919 18.8567 5.12883 18.8567 8.91633C18.8567 11.394 17.5335 13.6387 15.4255 14.8574Z" fill="#FCFCFC"/>
</g>
<defs>
<clipPath id="clip0_38_1767">
<rect width="24" height="24" fill="white" transform="translate(0 0.130615)"/>
</clipPath>
</defs>
</svg>
