<svg width="88" height="88" viewBox="0 0 88 88" fill="none" xmlns="http://www.w3.org/2000/svg">
<rect width="88" height="88" rx="40" fill="url(#paint0_radial_36_454)"/>
<path d="M54.0627 43.8514L43.9431 35.0683C43.8654 35.0014 43.7663 34.9639 43.6618 34.9639H41.2913C41.0931 34.9639 41.002 35.2103 41.152 35.3389L50.5324 43.4817H34.8574C34.7395 43.4817 34.6431 43.5782 34.6431 43.696V45.3032C34.6431 45.421 34.7395 45.5174 34.8574 45.5174H50.5297L41.1493 53.6603C40.9993 53.7915 41.0904 54.0353 41.2886 54.0353H43.7395C43.7904 54.0353 43.8413 54.0165 43.8788 53.9817L54.0627 45.1478C54.1554 45.0672 54.2298 44.9676 54.2807 44.8557C54.3317 44.7439 54.3581 44.6225 54.3581 44.4996C54.3581 44.3767 54.3317 44.2552 54.2807 44.1434C54.2298 44.0316 54.1554 43.932 54.0627 43.8514Z" fill="#FCFCFC"/>
<defs>
<radialGradient id="paint0_radial_36_454" cx="0" cy="0" r="1" gradientUnits="userSpaceOnUse" gradientTransform="translate(44 -1.63913e-06) rotate(90) scale(88)">
<stop stop-color="#494955"/>
<stop offset="1" stop-color="#141414"/>
</radialGradient>
</defs>
</svg>
