<svg width="1227" height="6110" viewBox="0 0 1227 6110" fill="none" xmlns="http://www.w3.org/2000/svg">
<path fill-rule="evenodd" clip-rule="evenodd" d="M0.999964 -3.29393e-07L1 6134L0 6134L-3.55811e-05 0L0.999964 -3.29393e-07Z" fill="url(#paint0_linear_36_456)"/>
<path fill-rule="evenodd" clip-rule="evenodd" d="M112.471 -3.45731e-07L112.471 6134L111.471 6134L111.471 0L112.471 -3.45731e-07Z" fill="url(#paint1_linear_36_456)"/>
<path fill-rule="evenodd" clip-rule="evenodd" d="M223.942 -3.45731e-07L223.942 6134L222.942 6134L222.942 0L223.942 -3.45731e-07Z" fill="url(#paint2_linear_36_456)"/>
<path fill-rule="evenodd" clip-rule="evenodd" d="M335.413 -3.45731e-07L335.413 6134L334.413 6134L334.413 0L335.413 -3.45731e-07Z" fill="url(#paint3_linear_36_456)"/>
<path fill-rule="evenodd" clip-rule="evenodd" d="M446.884 -3.45731e-07L446.884 6134L445.884 6134L445.884 0L446.884 -3.45731e-07Z" fill="url(#paint4_linear_36_456)"/>
<path fill-rule="evenodd" clip-rule="evenodd" d="M558.355 -3.45731e-07L558.355 6134L557.355 6134L557.355 0L558.355 -3.45731e-07Z" fill="url(#paint5_linear_36_456)"/>
<path fill-rule="evenodd" clip-rule="evenodd" d="M669.826 -3.45731e-07L669.826 6134L668.826 6134L668.826 0L669.826 -3.45731e-07Z" fill="url(#paint6_linear_36_456)"/>
<path fill-rule="evenodd" clip-rule="evenodd" d="M781.297 -3.45731e-07L781.297 6134L780.297 6134L780.297 0L781.297 -3.45731e-07Z" fill="url(#paint7_linear_36_456)"/>
<path fill-rule="evenodd" clip-rule="evenodd" d="M892.768 -3.45731e-07L892.768 6134L891.768 6134L891.768 0L892.768 -3.45731e-07Z" fill="url(#paint8_linear_36_456)"/>
<path fill-rule="evenodd" clip-rule="evenodd" d="M1004.24 -3.45731e-07L1004.24 6134L1003.24 6134L1003.24 0L1004.24 -3.45731e-07Z" fill="url(#paint9_linear_36_456)"/>
<path fill-rule="evenodd" clip-rule="evenodd" d="M1115.71 -3.45731e-07L1115.71 6134L1114.71 6134L1114.71 0L1115.71 -3.45731e-07Z" fill="url(#paint10_linear_36_456)"/>
<path fill-rule="evenodd" clip-rule="evenodd" d="M1227 -3.14042e-07L1227 5571.78L1226 5571.78L1226 0L1227 -3.14042e-07Z" fill="url(#paint11_linear_36_456)"/>
<defs>
<linearGradient id="paint0_linear_36_456" x1="-1.77905e-05" y1="3067" x2="0.654506" y2="3067" gradientUnits="userSpaceOnUse">
<stop stop-color="#404047"/>
<stop offset="1" stop-color="#404047" stop-opacity="0"/>
</linearGradient>
<linearGradient id="paint1_linear_36_456" x1="111.471" y1="3067" x2="112.125" y2="3067" gradientUnits="userSpaceOnUse">
<stop stop-color="#404047"/>
<stop offset="1" stop-color="#404047" stop-opacity="0"/>
</linearGradient>
<linearGradient id="paint2_linear_36_456" x1="222.942" y1="3067" x2="223.597" y2="3067" gradientUnits="userSpaceOnUse">
<stop stop-color="#404047"/>
<stop offset="1" stop-color="#404047" stop-opacity="0"/>
</linearGradient>
<linearGradient id="paint3_linear_36_456" x1="334.413" y1="3067" x2="335.067" y2="3067" gradientUnits="userSpaceOnUse">
<stop stop-color="#404047"/>
<stop offset="1" stop-color="#404047" stop-opacity="0"/>
</linearGradient>
<linearGradient id="paint4_linear_36_456" x1="445.884" y1="3067" x2="446.538" y2="3067" gradientUnits="userSpaceOnUse">
<stop stop-color="#404047"/>
<stop offset="1" stop-color="#404047" stop-opacity="0"/>
</linearGradient>
<linearGradient id="paint5_linear_36_456" x1="557.355" y1="3067" x2="558.009" y2="3067" gradientUnits="userSpaceOnUse">
<stop stop-color="#404047"/>
<stop offset="1" stop-color="#404047" stop-opacity="0"/>
</linearGradient>
<linearGradient id="paint6_linear_36_456" x1="668.826" y1="3067" x2="669.48" y2="3067" gradientUnits="userSpaceOnUse">
<stop stop-color="#404047"/>
<stop offset="1" stop-color="#404047" stop-opacity="0"/>
</linearGradient>
<linearGradient id="paint7_linear_36_456" x1="780.297" y1="3067" x2="780.951" y2="3067" gradientUnits="userSpaceOnUse">
<stop stop-color="#404047"/>
<stop offset="1" stop-color="#404047" stop-opacity="0"/>
</linearGradient>
<linearGradient id="paint8_linear_36_456" x1="891.768" y1="3067" x2="892.422" y2="3067" gradientUnits="userSpaceOnUse">
<stop stop-color="#404047"/>
<stop offset="1" stop-color="#404047" stop-opacity="0"/>
</linearGradient>
<linearGradient id="paint9_linear_36_456" x1="1003.24" y1="3067" x2="1003.89" y2="3067" gradientUnits="userSpaceOnUse">
<stop stop-color="#404047"/>
<stop offset="1" stop-color="#404047" stop-opacity="0"/>
</linearGradient>
<linearGradient id="paint10_linear_36_456" x1="1114.71" y1="3067" x2="1115.36" y2="3067" gradientUnits="userSpaceOnUse">
<stop stop-color="#404047"/>
<stop offset="1" stop-color="#404047" stop-opacity="0"/>
</linearGradient>
<linearGradient id="paint11_linear_36_456" x1="1226" y1="2785.89" x2="1226.65" y2="2785.89" gradientUnits="userSpaceOnUse">
<stop stop-color="#404047"/>
<stop offset="1" stop-color="#404047" stop-opacity="0"/>
</linearGradient>
</defs>
</svg>
