<svg width="46" height="47" viewBox="0 0 46 47" fill="none" xmlns="http://www.w3.org/2000/svg">
<path d="M28.4125 38.3765C27.9637 38.3765 27.5148 38.202 27.1718 37.8525L5.43852 15.7122C3.45308 13.6825 2.11401 11.1247 1.56432 8.31299C1.56272 8.30506 1.56128 8.29713 1.55985 8.28921L0.529671 2.6252C0.423728 2.04322 0.605188 1.44505 1.01488 1.02633C1.42441 0.607794 2.0095 0.421957 2.57899 0.53034L8.11987 1.5835C8.12762 1.58505 8.13537 1.58643 8.14304 1.58807C10.8936 2.15006 13.3959 3.51872 15.3793 5.54629L37.1104 27.6843C37.798 28.3848 37.7999 29.5224 37.1147 30.2252C36.4294 30.9279 35.3165 30.93 34.629 30.2295L12.8957 8.08933C11.4054 6.56593 9.52847 5.5381 7.46525 5.11413L4.45376 4.54181L5.01356 7.61987C5.42823 9.72912 6.4338 11.6478 7.92214 13.1691L29.6532 35.3074C30.3408 36.0078 30.3426 37.1454 29.6574 37.8482C29.3141 38.2003 28.8633 38.3765 28.4125 38.3765ZM12.5023 44.3982L19.2685 37.4799C19.9549 36.7781 19.9548 35.6405 19.2682 34.939C18.5818 34.2374 17.4689 34.2375 16.7826 34.9393L10.0166 41.8574C8.64596 43.2584 6.41568 43.2584 5.04517 41.8574C4.3812 41.1786 4.0155 40.2763 4.0155 39.3165C4.0155 38.3567 4.3812 37.4543 5.04534 36.7753L11.7675 29.9021C12.4539 29.2002 12.4537 28.0627 11.7673 27.3612C11.0808 26.6597 9.96784 26.6597 9.28144 27.3614L2.55944 34.2345C1.23149 35.5918 0.500088 37.3967 0.500088 39.3164C0.500088 41.2361 1.2314 43.0409 2.55935 44.3983C3.92995 45.7994 5.7303 46.4998 7.53073 46.4998C9.33109 46.4998 11.1316 45.7992 12.5023 44.3982ZM36.6014 19.7576L40.56 15.71C42.5433 13.6826 43.8824 11.1247 44.4322 8.3129C44.4338 8.30497 44.4353 8.29705 44.4367 8.28912L45.4668 2.6252C45.5727 2.04314 45.3912 1.44505 44.9816 1.02633C44.5721 0.607707 43.9871 0.422043 43.4175 0.53034L37.8766 1.58359C37.8688 1.58514 37.8611 1.58652 37.8534 1.58815C35.1029 2.15014 32.6005 3.5188 30.617 5.54655L26.7242 9.52691C26.0378 10.2287 26.038 11.3664 26.7246 12.0678C27.4111 12.7694 28.524 12.7694 29.2102 12.0675L33.1028 8.08735C34.5911 6.56585 36.4681 5.5381 38.5314 5.11413L41.5426 4.54189L40.9827 7.6203C40.568 9.72946 39.5624 11.648 38.0741 13.1694L34.1153 17.2171C33.4289 17.9189 33.4291 19.0566 34.1157 19.758C34.4589 20.1087 34.9085 20.2841 35.3583 20.2841C35.8082 20.284 36.2581 20.1086 36.6014 19.7576ZM43.437 44.3983C44.765 43.0409 45.4963 41.2361 45.4963 39.3164C45.4963 37.4068 44.7726 35.6108 43.4578 34.2558L42.1196 32.7993C41.4551 32.076 40.3427 32.0403 39.6351 32.7195C38.9275 33.3989 38.8926 34.5359 39.5572 35.2593L40.9129 36.7349C40.9254 36.7486 40.9382 36.7622 40.9513 36.7754C41.6153 37.4542 41.981 38.3565 41.981 39.3163C41.981 40.2762 41.6153 41.1786 40.9513 41.8572C39.5865 43.2522 37.3696 43.2583 35.9975 41.875L34.6626 40.4219C33.998 39.6987 32.8857 39.663 32.178 40.3422C31.4704 41.0215 31.4355 42.1586 32.1 42.8819L33.4557 44.3577C33.4684 44.3714 33.4811 44.3849 33.4942 44.3982C34.8648 45.7992 36.6652 46.4998 38.4656 46.4998C40.2659 46.4999 42.0664 45.7993 43.437 44.3983Z" fill="#FCFCFC"/>
</svg>
