<svg width="44" height="47" viewBox="0 0 44 47" fill="none" xmlns="http://www.w3.org/2000/svg">
<path d="M16.8008 35.6289C7.53679 35.6289 0 27.7495 0 18.0645C0 8.37937 7.53679 0.5 16.8008 0.5C26.0648 0.5 33.6016 8.37937 33.6016 18.0645C33.6016 27.7495 26.0648 35.6289 16.8008 35.6289ZM16.8008 4.09374C9.43228 4.09374 3.43749 10.3609 3.43749 18.0645C3.43749 25.768 9.4322 32.0352 16.8008 32.0352C24.1694 32.0352 30.1641 25.768 30.1641 18.0645C30.1641 10.3609 24.1693 4.09374 16.8008 4.09374ZM44 35.7188V25.4766C44 21.8421 42.2656 18.4759 39.3605 16.4721C38.5684 15.9257 37.5021 16.1541 36.9794 16.9825C36.4566 17.8109 36.6753 18.9254 37.4676 19.4719C39.4055 20.8086 40.5625 23.0532 40.5625 25.4767V35.7189C40.5625 39.6821 37.4784 42.9063 33.6875 42.9063H23.8906C21.6394 42.9063 19.5271 41.7505 18.2402 39.8146C17.6985 38.9996 16.6273 38.7982 15.848 39.3644C15.0684 39.9307 14.8758 41.0505 15.4173 41.8653C17.3465 44.7675 20.5141 46.5001 23.8907 46.5001H33.6876C39.3738 46.5 44 41.6635 44 35.7188Z" fill="#FCFCFC"/>
</svg>
