<svg width="45" height="47" viewBox="0 0 45 47" fill="none" xmlns="http://www.w3.org/2000/svg">
<path d="M27.9125 38.3765C27.4637 38.3765 27.0148 38.202 26.6718 37.8525L4.93852 15.7122C2.95308 13.6825 1.61401 11.1247 1.06432 8.31299C1.06272 8.30506 1.06128 8.29713 1.05985 8.28921L0.029671 2.6252C-0.0762717 2.04322 0.105188 1.44505 0.514883 1.02633C0.92441 0.607794 1.5095 0.421957 2.07899 0.53034L7.61987 1.5835C7.62762 1.58505 7.63537 1.58643 7.64304 1.58807C10.3936 2.15006 12.8959 3.51872 14.8793 5.54629L36.6104 27.6843C37.298 28.3848 37.2999 29.5224 36.6147 30.2252C35.9294 30.9279 34.8165 30.93 34.129 30.2295L12.3957 8.08933C10.9054 6.56593 9.02847 5.5381 6.96525 5.11413L3.95376 4.54181L4.51356 7.61987C4.92823 9.72912 5.9338 11.6478 7.42214 13.1691L29.1532 35.3074C29.8408 36.0078 29.8426 37.1454 29.1574 37.8482C28.8141 38.2003 28.3633 38.3765 27.9125 38.3765ZM12.0023 44.3982L18.7685 37.4799C19.4549 36.7781 19.4548 35.6405 18.7682 34.939C18.0818 34.2374 16.9689 34.2375 16.2826 34.9393L9.51655 41.8574C8.14596 43.2584 5.91568 43.2584 4.54517 41.8574C3.8812 41.1786 3.5155 40.2763 3.5155 39.3165C3.5155 38.3567 3.8812 37.4543 4.54534 36.7753L11.2675 29.9021C11.9539 29.2002 11.9537 28.0627 11.2673 27.3612C10.5808 26.6597 9.46784 26.6597 8.78144 27.3614L2.05944 34.2345C0.731488 35.5918 8.79438e-05 37.3967 8.79438e-05 39.3164C8.79438e-05 41.2361 0.731404 43.0409 2.05935 44.3983C3.42995 45.7994 5.2303 46.4998 7.03073 46.4998C8.83109 46.4998 10.6316 45.7992 12.0023 44.3982ZM36.1014 19.7576L40.06 15.71C42.0433 13.6826 43.3824 11.1247 43.9322 8.3129C43.9338 8.30497 43.9353 8.29705 43.9367 8.28912L44.9668 2.6252C45.0727 2.04314 44.8912 1.44505 44.4816 1.02633C44.0721 0.607707 43.4871 0.422043 42.9175 0.53034L37.3766 1.58359C37.3688 1.58514 37.3611 1.58652 37.3534 1.58815C34.6029 2.15014 32.1005 3.5188 30.117 5.54655L26.2242 9.52691C25.5378 10.2287 25.538 11.3664 26.2246 12.0678C26.9111 12.7694 28.024 12.7694 28.7102 12.0675L32.6028 8.08735C34.0911 6.56585 35.9681 5.5381 38.0314 5.11413L41.0426 4.54189L40.4827 7.6203C40.068 9.72946 39.0624 11.648 37.5741 13.1694L33.6153 17.2171C32.9289 17.9189 32.9291 19.0566 33.6157 19.758C33.9589 20.1087 34.4085 20.2841 34.8583 20.2841C35.3082 20.284 35.7581 20.1086 36.1014 19.7576ZM42.937 44.3983C44.265 43.0409 44.9963 41.2361 44.9963 39.3164C44.9963 37.4068 44.2726 35.6108 42.9578 34.2558L41.6196 32.7993C40.9551 32.076 39.8427 32.0403 39.1351 32.7195C38.4275 33.3989 38.3926 34.5359 39.0572 35.2593L40.4129 36.7349C40.4254 36.7486 40.4382 36.7622 40.4513 36.7754C41.1153 37.4542 41.481 38.3565 41.481 39.3163C41.481 40.2762 41.1153 41.1786 40.4513 41.8572C39.0865 43.2522 36.8696 43.2583 35.4975 41.875L34.1626 40.4219C33.498 39.6987 32.3857 39.663 31.678 40.3422C30.9704 41.0215 30.9355 42.1586 31.6 42.8819L32.9557 44.3577C32.9684 44.3714 32.9811 44.3849 32.9942 44.3982C34.3648 45.7992 36.1652 46.4998 37.9656 46.4998C39.7659 46.4999 41.5664 45.7993 42.937 44.3983Z" fill="#FCFCFC"/>
</svg>
