<svg width="44" height="46" viewBox="0 0 44 46" fill="none" xmlns="http://www.w3.org/2000/svg">
<path d="M37.7266 45.5C36.0509 45.5 34.4755 44.8326 33.2906 43.6208L28.1793 38.3933C26.4379 36.6124 25.2625 34.3656 24.7797 31.896L23.8065 26.9157C23.6938 26.3395 23.8703 25.7438 24.2767 25.3282C24.683 24.9127 25.2657 24.7325 25.8289 24.8474L30.6984 25.8429C33.1133 26.3366 35.31 27.5387 37.0515 29.3198L42.1628 34.5472C43.3476 35.7589 44.0001 37.37 44.0001 39.0838C44.0001 40.7976 43.3476 42.4088 42.1625 43.6206C40.9775 44.8326 39.4022 45.5 37.7266 45.5ZM27.6824 28.8116L28.1505 31.2068C28.4997 32.9936 29.3502 34.6189 30.61 35.9073L35.7213 41.1347C36.2568 41.6825 36.9691 41.9843 37.7266 41.9843C38.484 41.9843 39.1963 41.6825 39.7319 41.1347C40.2674 40.587 40.5625 39.8586 40.5625 39.0839C40.5625 38.3092 40.2674 37.5808 39.7319 37.0331L34.6205 31.8056C33.3608 30.5173 31.7716 29.6475 30.0246 29.2903L27.6824 28.8116ZM26.7681 43.4992C27.4438 42.8174 27.4511 41.7045 26.7843 41.0134C26.1177 40.3224 25.0293 40.3147 24.3538 40.9968C23.7227 41.6337 22.8868 41.9844 22.0001 41.9844C20.152 41.9844 18.6485 40.4468 18.6485 38.5567V17.9903C18.6485 14.1617 15.603 11.0469 11.8595 11.0469H6.87499C4.97958 11.0469 3.43749 9.46981 3.43749 7.53132C3.43749 5.59284 4.97958 4.01562 6.87499 4.01562H37.125C39.0204 4.01562 40.5625 5.59276 40.5625 7.53124C40.5625 9.46972 39.0204 11.0469 37.125 11.0469H32.1406C28.3971 11.0469 25.3516 14.1616 25.3516 17.9902V19.9238C25.3516 20.8946 26.1211 21.6816 27.0704 21.6816C28.0197 21.6816 28.7892 20.8946 28.7892 19.9238V17.9902C28.7892 16.1001 30.2926 14.5625 32.1407 14.5625H37.1251C40.916 14.5625 44.0001 11.4083 44.0001 7.53124C44.0001 3.65419 40.9159 0.5 37.125 0.5H6.87499C3.08409 0.5 0 3.65419 0 7.53124C0 11.4083 3.08409 14.5625 6.87499 14.5625H11.8594C13.7075 14.5625 15.2109 16.1001 15.2109 17.9902V38.5566C15.2109 42.3852 18.2564 45.4999 21.9999 45.4999C23.7963 45.5 25.4896 44.7894 26.7681 43.4992Z" fill="#FCFCFC"/>
</svg>
