<svg width="45" height="47" viewBox="0 0 45 47" fill="none" xmlns="http://www.w3.org/2000/svg">
<g clip-path="url(#clip0_36_401)">
<path d="M32.5584 37.2541C31.5923 37.2541 30.8091 36.4503 30.8091 35.4587V20.3781C30.8091 19.3865 31.5923 18.5827 32.5584 18.5827C33.5246 18.5827 34.3078 19.3865 34.3078 20.3781V35.4588C34.3078 36.4503 33.5246 37.2541 32.5584 37.2541ZM36.3476 43.3765L41.786 37.8411C43.7593 35.8327 44.891 33.0449 44.891 30.1927V11.3116C44.891 5.37197 40.1826 0.539673 34.3953 0.539673H16.0434C13.2563 0.539673 10.6315 1.64892 8.65263 3.66321L3.21414 9.19858C1.24085 11.2069 0.109131 13.9947 0.109131 16.8471V35.7281C0.109131 41.6677 4.81752 46.5 10.6049 46.5H28.9568C31.744 46.5 34.3687 45.3908 36.3476 43.3765ZM34.3953 4.13032C38.2535 4.13032 41.3924 7.35182 41.3924 11.3116V30.1926C41.3924 32.0941 40.6379 33.9527 39.3224 35.2916L33.884 40.8271C32.5647 42.1699 30.8149 42.9094 28.9568 42.9094H10.6049C6.74661 42.9094 3.60771 39.6879 3.60771 35.7281V16.8471C3.60771 14.9456 4.36222 13.087 5.67772 11.7481L11.1161 6.21262C12.4354 4.86982 14.1852 4.13032 16.0434 4.13032H34.3953ZM36.4547 11.7173L37.1903 10.9817C37.8824 10.2898 37.8967 9.15313 37.2225 8.44299C36.5484 7.73276 35.4408 7.71795 34.7489 8.40993L34.0132 9.14555C32.6165 10.5424 30.7732 11.3116 28.8232 11.3116H11.3921C10.4259 11.3116 9.64275 12.1154 9.64275 13.107C9.64275 14.0985 10.4259 14.9023 11.3921 14.9023H28.8231C31.6905 14.9023 34.4008 13.7711 36.4547 11.7173Z" fill="#FCFCFC"/>
</g>
<defs>
<clipPath id="clip0_36_401">
<rect width="44.7819" height="45.9603" fill="white" transform="translate(0.109131 0.539673)"/>
</clipPath>
</defs>
</svg>
