<svg width="104" height="101" viewBox="0 0 104 101" fill="none" xmlns="http://www.w3.org/2000/svg">
<rect x="0.609131" y="0.539673" width="102.782" height="99.9603" rx="16" fill="#15151E"/>
<path d="M51.9971 55.3513C50.0072 55.3514 48.0181 54.8441 46.2042 53.8296L33.1249 46.5138C31.2283 45.453 30.0542 43.4016 30.0603 41.1602C30.0666 38.9188 31.2522 36.8746 33.1546 35.8252L46.2669 28.5927C49.855 26.6136 54.1391 26.6136 57.7272 28.5927L70.8395 35.8252C72.7419 36.8746 73.9275 38.9188 73.9338 41.1602C73.9399 43.4016 72.7658 45.453 70.8692 46.5138L57.7898 53.8296C55.9765 54.8441 53.9864 55.3512 51.9971 55.3513ZM51.9971 30.6831C50.5794 30.6831 49.1618 31.0395 47.8695 31.7523L34.7574 38.9849C33.9652 39.4219 33.4906 40.2391 33.4881 41.1707C33.4855 42.1023 33.9554 42.9223 34.7453 43.3641L47.8247 50.6799C50.4375 52.1413 53.5571 52.1413 56.1699 50.6799L69.2493 43.3641C70.0392 42.9223 70.5091 42.1024 70.5065 41.1707C70.504 40.239 70.0294 39.4219 69.2372 38.9849L56.1246 31.7523C54.8323 31.0396 53.4147 30.6831 51.9971 30.6831ZM47.0683 30.1725H47.0691H47.0683ZM57.7899 70.0034L73.0301 61.4792C73.8643 61.0127 74.1778 59.9293 73.7304 59.0596C73.283 58.1898 72.2442 57.8629 71.4101 58.3294L56.1697 66.8536C53.5571 68.315 50.4375 68.315 47.8179 66.8499L32.5776 58.4151C31.7414 57.9523 30.704 58.284 30.2604 59.1558C29.8167 60.0277 30.1347 61.1095 30.9708 61.5722L46.2043 70.0033C48.0182 71.0179 50.0073 71.5251 51.9971 71.5251C53.9864 71.5251 55.9765 71.0178 57.7899 70.0034ZM57.7899 61.9613L73.0301 53.4371C73.8643 52.9705 74.1778 51.8872 73.7304 51.0174C73.283 50.1475 72.2442 49.8208 71.4101 50.2872L56.1697 58.8114C53.5571 60.273 50.4375 60.2728 47.8179 58.8077L32.5776 50.3729C31.7414 49.9102 30.704 50.2419 30.2604 51.1137C29.8167 51.9855 30.1347 53.0673 30.9708 53.53L46.2043 61.9612C48.0182 62.9757 50.0073 63.4829 51.9971 63.4829C53.9864 63.4829 55.9765 62.9757 57.7899 61.9613Z" fill="#FCFCFC"/>
</svg>
