<svg width="103" height="101" viewBox="0 0 103 101" fill="none" xmlns="http://www.w3.org/2000/svg">
<rect x="0.109131" y="0.539673" width="102.782" height="99.9603" rx="16" fill="url(#paint0_linear_36_415)"/>
<path d="M46.8008 62.6289C37.5368 62.6289 30 54.7495 30 45.0645C30 35.3794 37.5368 27.5 46.8008 27.5C56.0648 27.5 63.6016 35.3794 63.6016 45.0645C63.6016 54.7495 56.0648 62.6289 46.8008 62.6289ZM46.8008 31.0937C39.4323 31.0937 33.4375 37.3609 33.4375 45.0645C33.4375 52.768 39.4322 59.0352 46.8008 59.0352C54.1694 59.0352 60.1641 52.768 60.1641 45.0645C60.1641 37.3609 54.1693 31.0937 46.8008 31.0937ZM74 62.7188V52.4766C74 48.8421 72.2656 45.4759 69.3605 43.4721C68.5684 42.9257 67.5021 43.1541 66.9794 43.9825C66.4566 44.8109 66.6753 45.9254 67.4676 46.4719C69.4055 47.8086 70.5625 50.0532 70.5625 52.4767V62.7189C70.5625 66.6821 67.4784 69.9063 63.6875 69.9063H53.8906C51.6394 69.9063 49.5271 68.7505 48.2402 66.8146C47.6985 65.9996 46.6273 65.7982 45.848 66.3644C45.0684 66.9307 44.8758 68.0505 45.4173 68.8653C47.3465 71.7675 50.5141 73.5001 53.8907 73.5001H63.6876C69.3738 73.5 74 68.6635 74 62.7188Z" fill="#FCFCFC"/>
<defs>
<linearGradient id="paint0_linear_36_415" x1="6.02514e-05" y1="1" x2="103" y2="101" gradientUnits="userSpaceOnUse">
<stop stop-color="#1890FF"/>
<stop offset="0.245" stop-color="#0050B3"/>
<stop offset="0.745" stop-color="#391085"/>
<stop offset="1" stop-color="#722ED1"/>
</linearGradient>
</defs>
</svg>
