<svg width="103" height="101" viewBox="0 0 103 101" fill="none" xmlns="http://www.w3.org/2000/svg">
<rect x="0.109131" y="0.539673" width="102.782" height="99.9603" rx="16" fill="#15151E"/>
<g clip-path="url(#clip0_36_400)">
<path d="M61.5584 64.2541C60.5923 64.2541 59.8091 63.4503 59.8091 62.4587V47.3781C59.8091 46.3865 60.5923 45.5827 61.5584 45.5827C62.5246 45.5827 63.3078 46.3865 63.3078 47.3781V62.4588C63.3078 63.4503 62.5246 64.2541 61.5584 64.2541ZM65.3476 70.3765L70.786 64.8411C72.7593 62.8327 73.891 60.0449 73.891 57.1927V38.3116C73.891 32.372 69.1826 27.5397 63.3953 27.5397H45.0434C42.2563 27.5397 39.6315 28.6489 37.6526 30.6632L32.2141 36.1986C30.2408 38.2069 29.1091 40.9947 29.1091 43.8471V62.7281C29.1091 68.6677 33.8175 73.5 39.6049 73.5H57.9568C60.744 73.5 63.3687 72.3908 65.3476 70.3765ZM63.3953 31.1303C67.2535 31.1303 70.3924 34.3518 70.3924 38.3116V57.1926C70.3924 59.0941 69.6379 60.9527 68.3224 62.2916L62.884 67.8271C61.5647 69.1699 59.8149 69.9094 57.9568 69.9094H39.6049C35.7466 69.9094 32.6077 66.6879 32.6077 62.7281V43.8471C32.6077 41.9456 33.3622 40.087 34.6777 38.7481L40.1161 33.2126C41.4354 31.8698 43.1852 31.1303 45.0434 31.1303H63.3953ZM65.4547 38.7173L66.1903 37.9817C66.8824 37.2898 66.8967 36.1531 66.2225 35.443C65.5484 34.7328 64.4408 34.718 63.7489 35.4099L63.0132 36.1455C61.6165 37.5424 59.7732 38.3116 57.8232 38.3116H40.3921C39.4259 38.3116 38.6428 39.1154 38.6428 40.107C38.6428 41.0985 39.4259 41.9023 40.3921 41.9023H57.8231C60.6905 41.9023 63.4008 40.7711 65.4547 38.7173Z" fill="#FCFCFC"/>
</g>
<defs>
<clipPath id="clip0_36_400">
<rect width="44.7819" height="45.9603" fill="white" transform="translate(29.1091 27.5397)"/>
</clipPath>
</defs>
</svg>
