<svg width="104" height="101" viewBox="0 0 104 101" fill="none" xmlns="http://www.w3.org/2000/svg">
<rect x="0.609131" y="0.5" width="102.782" height="99.9603" rx="16" fill="#15151E"/>
<path d="M58.4125 65.3765C57.9637 65.3765 57.5148 65.202 57.1718 64.8525L35.4385 42.7122C33.4531 40.6825 32.114 38.1247 31.5643 35.313C31.5627 35.3051 31.5613 35.2971 31.5599 35.2892L30.5297 29.6252C30.4237 29.0432 30.6052 28.445 31.0149 28.0263C31.4244 27.6078 32.0095 27.422 32.579 27.5303L38.1199 28.5835C38.1276 28.5851 38.1354 28.5864 38.143 28.5881C40.8936 29.1501 43.3959 30.5187 45.3793 32.5463L67.1104 54.6843C67.798 55.3848 67.7999 56.5224 67.1147 57.2252C66.4294 57.9279 65.3165 57.93 64.629 57.2295L42.8957 35.0893C41.4054 33.5659 39.5285 32.5381 37.4652 32.1141L34.4538 31.5418L35.0136 34.6199C35.4282 36.7291 36.4338 38.6478 37.9221 40.1691L59.6532 62.3074C60.3408 63.0078 60.3426 64.1454 59.6574 64.8482C59.3141 65.2003 58.8633 65.3765 58.4125 65.3765ZM42.5023 71.3982L49.2685 64.4799C49.9549 63.7781 49.9548 62.6405 49.2682 61.939C48.5818 61.2374 47.4689 61.2375 46.7826 61.9393L40.0166 68.8574C38.646 70.2584 36.4157 70.2584 35.0452 68.8574C34.3812 68.1786 34.0155 67.2763 34.0155 66.3165C34.0155 65.3567 34.3812 64.4543 35.0453 63.7753L41.7675 56.9021C42.4539 56.2002 42.4537 55.0627 41.7673 54.3612C41.0808 53.6597 39.9678 53.6597 39.2814 54.3614L32.5594 61.2345C31.2315 62.5918 30.5001 64.3967 30.5001 66.3164C30.5001 68.2361 31.2314 70.0409 32.5594 71.3983C33.9299 72.7994 35.7303 73.4998 37.5307 73.4998C39.3311 73.4998 41.1316 72.7992 42.5023 71.3982ZM66.6014 46.7576L70.56 42.71C72.5433 40.6826 73.8824 38.1247 74.4322 35.3129C74.4338 35.305 74.4353 35.297 74.4367 35.2891L75.4668 29.6252C75.5727 29.0431 75.3912 28.445 74.9816 28.0263C74.5721 27.6077 73.9871 27.422 73.4175 27.5303L67.8766 28.5836C67.8688 28.5851 67.8611 28.5865 67.8534 28.5882C65.1029 29.1501 62.6005 30.5188 60.617 32.5465L56.7242 36.5269C56.0378 37.2287 56.038 38.3664 56.7246 39.0678C57.4111 39.7694 58.524 39.7694 59.2102 39.0675L63.1028 35.0873C64.5911 33.5658 66.4681 32.5381 68.5314 32.1141L71.5426 31.5419L70.9827 34.6203C70.568 36.7295 69.5624 38.648 68.0741 40.1694L64.1153 44.2171C63.4289 44.9189 63.4291 46.0566 64.1157 46.758C64.4589 47.1087 64.9085 47.2841 65.3583 47.2841C65.8082 47.284 66.2581 47.1086 66.6014 46.7576ZM73.437 71.3983C74.765 70.0409 75.4963 68.2361 75.4963 66.3164C75.4963 64.4068 74.7726 62.6108 73.4578 61.2558L72.1196 59.7993C71.4551 59.076 70.3427 59.0403 69.6351 59.7195C68.9275 60.3989 68.8926 61.5359 69.5572 62.2593L70.9129 63.7349C70.9254 63.7486 70.9382 63.7622 70.9513 63.7754C71.6153 64.4542 71.981 65.3565 71.981 66.3163C71.981 67.2762 71.6153 68.1786 70.9513 68.8572C69.5865 70.2522 67.3696 70.2583 65.9975 68.875L64.6626 67.4219C63.998 66.6987 62.8857 66.663 62.178 67.3422C61.4704 68.0215 61.4355 69.1586 62.1 69.8819L63.4557 71.3577C63.4684 71.3714 63.4811 71.3849 63.4942 71.3982C64.8648 72.7992 66.6652 73.4998 68.4656 73.4998C70.2659 73.4999 72.0664 72.7993 73.437 71.3983Z" fill="#FCFCFC"/>
</svg>
