<svg width="103" height="101" viewBox="0 0 103 101" fill="none" xmlns="http://www.w3.org/2000/svg">
<rect x="0.109131" y="0.5" width="102.782" height="99.9603" rx="16" fill="#15151E"/>
<path d="M67.7266 72.5C66.0509 72.5 64.4755 71.8326 63.2906 70.6208L58.1793 65.3933C56.4379 63.6124 55.2625 61.3656 54.7797 58.896L53.8065 53.9157C53.6938 53.3395 53.8703 52.7438 54.2767 52.3282C54.683 51.9127 55.2657 51.7325 55.8289 51.8474L60.6984 52.8429C63.1133 53.3366 65.31 54.5387 67.0515 56.3198L72.1628 61.5472C73.3476 62.7589 74.0001 64.37 74.0001 66.0838C74.0001 67.7976 73.3476 69.4088 72.1625 70.6206C70.9775 71.8326 69.4022 72.5 67.7266 72.5ZM57.6824 55.8116L58.1505 58.2068C58.4997 59.9936 59.3502 61.6189 60.61 62.9073L65.7213 68.1347C66.2568 68.6825 66.9691 68.9843 67.7266 68.9843C68.484 68.9843 69.1963 68.6825 69.7319 68.1347C70.2674 67.587 70.5625 66.8586 70.5625 66.0839C70.5625 65.3092 70.2674 64.5808 69.7319 64.0331L64.6205 58.8056C63.3608 57.5173 61.7716 56.6475 60.0246 56.2903L57.6824 55.8116ZM56.7681 70.4992C57.4438 69.8174 57.4511 68.7045 56.7843 68.0134C56.1177 67.3224 55.0293 67.3147 54.3538 67.9968C53.7227 68.6337 52.8868 68.9844 52.0001 68.9844C50.152 68.9844 48.6485 67.4468 48.6485 65.5567V44.9903C48.6485 41.1617 45.603 38.0469 41.8595 38.0469H36.875C34.9796 38.0469 33.4375 36.4698 33.4375 34.5313C33.4375 32.5928 34.9796 31.0156 36.875 31.0156H67.125C69.0204 31.0156 70.5625 32.5928 70.5625 34.5312C70.5625 36.4697 69.0204 38.0469 67.125 38.0469H62.1406C58.3971 38.0469 55.3516 41.1616 55.3516 44.9902V46.9238C55.3516 47.8946 56.1211 48.6816 57.0704 48.6816C58.0197 48.6816 58.7892 47.8946 58.7892 46.9238V44.9902C58.7892 43.1001 60.2926 41.5625 62.1407 41.5625H67.1251C70.916 41.5625 74.0001 38.4083 74.0001 34.5312C74.0001 30.6542 70.9159 27.5 67.125 27.5H36.875C33.0841 27.5 30 30.6542 30 34.5312C30 38.4083 33.0841 41.5625 36.875 41.5625H41.8594C43.7075 41.5625 45.2109 43.1001 45.2109 44.9902V65.5566C45.2109 69.3852 48.2564 72.4999 51.9999 72.4999C53.7963 72.5 55.4896 71.7894 56.7681 70.4992Z" fill="#FCFCFC"/>
</svg>
