<svg width="103" height="101" viewBox="0 0 103 101" fill="none" xmlns="http://www.w3.org/2000/svg">
<rect x="0.109131" y="0.5" width="102.782" height="99.9603" rx="16" fill="#15151E"/>
<path d="M57.9125 65.3765C57.4637 65.3765 57.0148 65.202 56.6718 64.8525L34.9385 42.7122C32.9531 40.6825 31.614 38.1247 31.0643 35.313C31.0627 35.3051 31.0613 35.2971 31.0599 35.2892L30.0297 29.6252C29.9237 29.0432 30.1052 28.445 30.5149 28.0263C30.9244 27.6078 31.5095 27.422 32.079 27.5303L37.6199 28.5835C37.6276 28.5851 37.6354 28.5864 37.643 28.5881C40.3936 29.1501 42.8959 30.5187 44.8793 32.5463L66.6104 54.6843C67.298 55.3848 67.2999 56.5224 66.6147 57.2252C65.9294 57.9279 64.8165 57.93 64.129 57.2295L42.3957 35.0893C40.9054 33.5659 39.0285 32.5381 36.9652 32.1141L33.9538 31.5418L34.5136 34.6199C34.9282 36.7291 35.9338 38.6478 37.4221 40.1691L59.1532 62.3074C59.8408 63.0078 59.8426 64.1454 59.1574 64.8482C58.8141 65.2003 58.3633 65.3765 57.9125 65.3765ZM42.0023 71.3982L48.7685 64.4799C49.4549 63.7781 49.4548 62.6405 48.7682 61.939C48.0818 61.2374 46.9689 61.2375 46.2826 61.9393L39.5166 68.8574C38.146 70.2584 35.9157 70.2584 34.5452 68.8574C33.8812 68.1786 33.5155 67.2763 33.5155 66.3165C33.5155 65.3567 33.8812 64.4543 34.5453 63.7753L41.2675 56.9021C41.9539 56.2002 41.9537 55.0627 41.2673 54.3612C40.5808 53.6597 39.4678 53.6597 38.7814 54.3614L32.0594 61.2345C30.7315 62.5918 30.0001 64.3967 30.0001 66.3164C30.0001 68.2361 30.7314 70.0409 32.0594 71.3983C33.4299 72.7994 35.2303 73.4998 37.0307 73.4998C38.8311 73.4998 40.6316 72.7992 42.0023 71.3982ZM66.1014 46.7576L70.06 42.71C72.0433 40.6826 73.3824 38.1247 73.9322 35.3129C73.9338 35.305 73.9353 35.297 73.9367 35.2891L74.9668 29.6252C75.0727 29.0431 74.8912 28.445 74.4816 28.0263C74.0721 27.6077 73.4871 27.422 72.9175 27.5303L67.3766 28.5836C67.3688 28.5851 67.3611 28.5865 67.3534 28.5882C64.6029 29.1501 62.1005 30.5188 60.117 32.5465L56.2242 36.5269C55.5378 37.2287 55.538 38.3664 56.2246 39.0678C56.9111 39.7694 58.024 39.7694 58.7102 39.0675L62.6028 35.0873C64.0911 33.5658 65.9681 32.5381 68.0314 32.1141L71.0426 31.5419L70.4827 34.6203C70.068 36.7295 69.0624 38.648 67.5741 40.1694L63.6153 44.2171C62.9289 44.9189 62.9291 46.0566 63.6157 46.758C63.9589 47.1087 64.4085 47.2841 64.8583 47.2841C65.3082 47.284 65.7581 47.1086 66.1014 46.7576ZM72.937 71.3983C74.265 70.0409 74.9963 68.2361 74.9963 66.3164C74.9963 64.4068 74.2726 62.6108 72.9578 61.2558L71.6196 59.7993C70.9551 59.076 69.8427 59.0403 69.1351 59.7195C68.4275 60.3989 68.3926 61.5359 69.0572 62.2593L70.4129 63.7349C70.4254 63.7486 70.4382 63.7622 70.4513 63.7754C71.1153 64.4542 71.481 65.3565 71.481 66.3163C71.481 67.2762 71.1153 68.1786 70.4513 68.8572C69.0865 70.2522 66.8696 70.2583 65.4975 68.875L64.1626 67.4219C63.498 66.6987 62.3857 66.663 61.678 67.3422C60.9704 68.0215 60.9355 69.1586 61.6 69.8819L62.9557 71.3577C62.9684 71.3714 62.9811 71.3849 62.9942 71.3982C64.3648 72.7992 66.1652 73.4998 67.9656 73.4998C69.7659 73.4999 71.5664 72.7993 72.937 71.3983Z" fill="#FCFCFC"/>
</svg>
