<svg width="44" height="45" viewBox="0 0 44 45" fill="none" xmlns="http://www.w3.org/2000/svg">
<path d="M21.9971 28.3513C20.0072 28.3514 18.0181 27.8441 16.2042 26.8296L3.12494 19.5138C1.22833 18.453 0.0541555 16.4016 0.060319 14.1602C0.0665646 11.9188 1.25216 9.87464 3.15461 8.82521L16.2669 1.5927C19.855 -0.386369 24.1391 -0.386369 27.7272 1.5927L40.8395 8.82521C42.7419 9.87456 43.9275 11.9188 43.9338 14.1602C43.9399 16.4016 42.7658 18.453 40.8692 19.5138L27.7898 26.8296C25.9765 27.8441 23.9864 28.3512 21.9971 28.3513ZM21.9971 3.68309C20.5794 3.68309 19.1618 4.0395 17.8695 4.75232L4.75743 11.9849C3.96522 12.4219 3.49064 13.2391 3.48809 14.1707C3.48555 15.1023 3.95545 15.9223 4.74527 16.3641L17.8247 23.6799C20.4375 25.1413 23.5571 25.1413 26.1699 23.6799L39.2493 16.3641C40.0392 15.9223 40.5091 15.1024 40.5065 14.1707C40.504 13.239 40.0294 12.4219 39.2372 11.9849L26.1246 4.75232C24.8323 4.03958 23.4147 3.68309 21.9971 3.68309ZM17.0683 3.17251H17.0691H17.0683ZM27.7899 43.0034L43.0301 34.4792C43.8643 34.0127 44.1778 32.9293 43.7304 32.0596C43.283 31.1898 42.2442 30.8629 41.4101 31.3294L26.1697 39.8536C23.5571 41.315 20.4375 41.315 17.8179 39.8499L2.57763 31.4151C1.74138 30.9523 0.704028 31.284 0.260425 32.1558C-0.183342 33.0277 0.134691 34.1095 0.970782 34.5722L16.2043 43.0033C18.0182 44.0179 20.0073 44.5251 21.9971 44.5251C23.9864 44.5251 25.9765 44.0178 27.7899 43.0034ZM27.7899 34.9613L43.0301 26.4371C43.8643 25.9705 44.1778 24.8872 43.7304 24.0174C43.283 23.1475 42.2442 22.8208 41.4101 23.2872L26.1697 31.8114C23.5571 33.273 20.4375 33.2728 17.8179 31.8077L2.57763 23.3729C1.74138 22.9102 0.704028 23.2419 0.260425 24.1137C-0.183342 24.9855 0.134691 26.0673 0.970782 26.53L16.2043 34.9612C18.0182 35.9757 20.0073 36.4829 21.9971 36.4829C23.9864 36.4829 25.9765 35.9757 27.7899 34.9613Z" fill="#FCFCFC"/>
</svg>
