<svg width="169" height="168" viewBox="0 0 169 168" fill="none" xmlns="http://www.w3.org/2000/svg">
<g filter="url(#filter0_d_36_45)">
<rect x="40.5715" y="36" width="88" height="88" rx="40" fill="url(#paint0_radial_36_45)"/>
<path d="M98.2462 48C95.7596 48.0185 93.2873 48.3801 90.8996 49.0747L90.7316 49.128C89.2255 48.8618 87.7008 48.7147 86.1716 48.688C83.0302 48.6347 80.3316 49.3973 78.1556 50.6667C76.0116 49.9227 71.5636 48.64 66.8756 48.896C63.6116 49.0747 60.0489 50.0667 57.4089 52.8533C54.7769 55.64 53.3849 59.952 53.6782 65.8187C53.7582 67.4373 54.2196 70.0773 54.9849 73.496C55.7502 76.9147 56.8249 80.9173 58.1662 84.568C59.5076 88.2213 60.9769 91.5013 63.2729 93.7307C64.4196 94.848 65.9982 95.7867 67.8596 95.7093C69.1662 95.656 70.3476 95.0827 71.3662 94.2373C71.8622 94.8907 72.3929 95.176 72.8756 95.44C73.4836 95.7733 74.0756 96 74.6889 96.1493C75.7902 96.424 77.6756 96.792 79.8836 96.416C80.6356 96.2907 81.4276 96.0453 82.2169 95.696C82.2462 96.576 82.2809 97.4373 82.3156 98.3093C82.4249 101.072 82.4942 103.624 83.3236 105.861C83.4569 106.227 83.8222 108.109 85.2622 109.771C86.7022 111.435 89.5236 112.472 92.7369 111.784C95.0036 111.299 97.8862 110.424 99.8009 107.699C101.694 105.005 102.548 101.141 102.716 94.8747C102.758 94.536 102.809 94.248 102.862 93.9787L103.313 94.0187H103.366C105.785 94.128 108.409 93.784 110.601 92.7653C112.542 91.8667 114.012 90.9573 115.081 89.344C115.348 88.944 115.641 88.4613 115.721 87.6293C115.801 86.7973 115.324 85.496 114.532 84.896C112.945 83.6907 111.948 84.1493 110.878 84.3707C109.825 84.6035 108.751 84.7339 107.673 84.76C110.756 79.568 112.966 74.0533 114.228 69.1733C114.974 66.2933 115.393 63.6373 115.428 61.3147C115.462 58.992 115.273 56.936 113.881 55.1573C109.532 49.6 103.417 48.064 98.6862 48.0107C98.5396 48.008 98.3929 48.0053 98.2462 48.008V48ZM98.1209 49.7067C102.596 49.664 108.313 50.92 112.417 56.1653C113.34 57.344 113.614 59.0667 113.582 61.1893C113.548 63.3093 113.156 65.848 112.438 68.6293C111.046 74.016 108.417 80.296 104.713 85.9307C104.844 86.0236 104.985 86.1006 105.134 86.16C105.908 86.48 107.67 86.7547 111.188 86.032C112.073 85.8453 112.721 85.72 113.393 86.232C113.556 86.3704 113.685 86.5448 113.77 86.7414C113.855 86.938 113.893 87.1516 113.881 87.3653C113.845 87.689 113.726 87.9978 113.534 88.2613C112.854 89.2827 111.513 90.2507 109.793 91.048C108.27 91.7573 106.086 92.128 104.15 92.1493C103.18 92.16 102.284 92.0853 101.524 91.848L101.476 91.8293C101.182 94.656 100.508 100.237 100.068 102.784C99.7156 104.837 99.0996 106.469 97.9236 107.691C96.7502 108.912 95.0889 109.648 92.8542 110.128C90.0862 110.723 88.0676 110.083 86.7662 108.987C85.4676 107.893 84.8729 106.443 84.5156 105.555C84.2702 104.941 84.1422 104.147 84.0196 103.085C83.8969 102.024 83.8062 100.725 83.7449 99.2613C83.6632 97.0197 83.6365 94.7763 83.6649 92.5333C82.5086 93.5924 81.0718 94.296 79.5262 94.56C77.6889 94.872 76.0489 94.5653 75.0702 94.32C74.5878 94.1988 74.1221 94.0188 73.6836 93.784C73.2302 93.5413 72.7982 93.2667 72.5102 92.7253C72.341 92.4153 72.2872 92.0553 72.3582 91.7093C72.4484 91.3586 72.6529 91.048 72.9396 90.8267C73.4676 90.3973 74.1662 90.1573 75.2196 89.9387C77.1369 89.544 77.8062 89.2747 78.2142 88.952C78.5609 88.6747 78.9529 88.1147 79.6462 87.2933C79.6429 87.2569 79.6403 87.2205 79.6382 87.184C78.3974 87.1491 77.1823 86.822 76.0916 86.2293C75.6916 86.6507 73.6489 88.8107 71.1582 91.808C70.1102 93.0613 68.9529 93.7813 67.7316 93.832C66.5102 93.8853 65.4062 93.2693 64.4676 92.36C62.5929 90.5387 61.0969 87.4053 59.7929 83.864C58.4916 80.3227 57.4329 76.3787 56.6809 73.0187C55.9262 69.6587 55.4809 66.9493 55.4169 65.6427C55.1369 60.0907 56.4356 56.3493 58.6622 53.9893C60.8916 51.6293 63.9476 50.736 66.9262 50.5653C72.2729 50.2587 77.3502 52.1227 78.3769 52.5227C80.3556 51.1787 82.9049 50.3413 86.0889 50.3947C87.6005 50.4159 89.1046 50.6109 90.5716 50.976L90.6249 50.952C91.2706 50.725 91.9285 50.5345 92.5956 50.3813C94.4068 49.9588 96.2585 49.7344 98.1182 49.712L98.1209 49.7067ZM98.5262 51.4933H98.1369C96.6091 51.5146 95.0871 51.6861 93.5929 52.0053C96.9156 53.4773 99.4249 55.744 101.193 58.0053C102.421 59.571 103.436 61.2927 104.212 63.1253C104.505 63.8293 104.702 64.424 104.814 64.8853C104.87 65.1173 104.908 65.312 104.921 65.5147C104.926 65.616 104.932 65.72 104.889 65.8987C104.889 65.9067 104.876 65.9253 104.873 65.9333C104.953 68.2693 104.374 69.8533 104.305 72.0827C104.252 73.6987 104.665 75.5973 104.766 77.6693C104.862 79.616 104.628 81.7547 103.364 83.8533C103.47 83.9813 103.566 84.1093 103.668 84.2373C107.012 78.9707 109.422 73.144 110.708 68.176C111.396 65.5013 111.761 63.0773 111.793 61.1573C111.82 59.2373 111.462 57.8453 111.006 57.264C107.428 52.688 102.585 51.5253 98.5262 51.4933ZM85.7529 52.176C82.6009 52.184 80.3396 53.136 78.6249 54.5627C76.8569 56.0373 75.6702 58.056 74.8916 60.1227C73.9662 62.576 73.6489 64.9493 73.5236 66.56L73.5582 66.5387C74.5102 66.0053 75.7609 65.472 77.0996 65.1627C78.4382 64.856 79.8809 64.76 81.1876 65.2667C82.4942 65.7733 83.5742 66.9653 83.9662 68.7733C85.8436 77.4587 83.3822 80.688 82.4756 83.1253C82.1316 84.0088 81.8369 84.9106 81.5929 85.8267C81.7076 85.8 81.8222 85.768 81.9369 85.7573C82.5769 85.704 83.0782 85.9173 83.3769 86.0453C84.2889 86.424 84.9156 87.2187 85.2542 88.1253C85.3422 88.3627 85.4062 88.6187 85.4436 88.8827C85.483 88.9911 85.5011 89.1061 85.4969 89.2213C85.3958 92.5434 85.4074 95.868 85.5316 99.1893C85.5929 100.624 85.6836 101.888 85.7982 102.885C85.9129 103.88 86.0756 104.637 86.1796 104.893C86.5209 105.747 87.0196 106.864 87.9209 107.624C88.8222 108.381 90.1156 108.888 92.4782 108.381C94.5262 107.941 95.7902 107.331 96.6356 106.453C97.4782 105.576 97.9822 104.355 98.3049 102.485C98.7876 99.6853 99.7582 91.5653 99.8756 90.0373C99.8222 88.8853 99.9929 88 100.361 87.3253C100.74 86.632 101.326 86.208 101.833 85.9787C102.086 85.864 102.324 85.7867 102.518 85.7307C102.312 85.4345 102.096 85.1454 101.87 84.864C101.14 83.9781 100.542 82.9909 100.094 81.9333C99.88 81.4966 99.6514 81.067 99.4089 80.6453C99.0542 80.0053 98.6062 79.2053 98.1369 78.3067C97.1982 76.5067 96.1769 74.3253 95.6462 72.2C95.1182 70.0773 95.0409 67.88 96.3956 66.3307C97.5956 64.9547 99.7022 64.384 102.865 64.704C102.772 64.424 102.716 64.192 102.558 63.8187C101.843 62.1357 100.91 60.5541 99.7822 59.1147C97.1022 55.688 92.7636 52.2907 86.0596 52.1813H85.7529V52.176ZM68.0409 52.3147C67.7022 52.3147 67.3636 52.3253 67.0276 52.344C64.3342 52.4987 61.7876 53.28 59.9662 55.2107C58.1422 57.1413 56.9422 60.3067 57.2036 65.5467C57.2542 66.5387 57.6862 69.3173 58.4276 72.6187C59.1662 75.92 60.2142 79.8053 61.4729 83.2373C62.7342 86.6693 64.2622 89.656 65.7129 91.0693C66.4436 91.776 67.0782 92.0613 67.6542 92.0373C68.2329 92.0107 68.9289 91.6773 69.7796 90.656C71.3305 88.7852 72.9402 86.9638 74.6062 85.1947C73.4241 84.1683 72.5194 82.8608 71.9756 81.3928C71.4317 79.9248 71.2662 78.3435 71.4942 76.7947C71.7689 74.824 71.8062 72.9813 71.7742 71.5253C71.7422 70.1067 71.6409 69.1627 71.6409 68.5733C71.6404 68.5564 71.6404 68.5396 71.6409 68.5227V68.5093L71.6382 68.4933C71.6367 65.4234 72.1709 62.3742 73.2169 59.488C73.9636 57.504 75.0756 55.488 76.7422 53.856C75.1049 53.3173 72.1982 52.496 69.0516 52.3413C68.7141 52.324 68.3789 52.3151 68.0409 52.3147ZM101.102 66.4C99.2916 66.424 98.2756 66.8907 97.7422 67.5013C96.9876 68.368 96.9156 69.888 97.3849 71.76C97.8516 73.6347 98.8169 75.7307 99.7236 77.472C100.177 78.344 100.617 79.128 100.972 79.7653C101.329 80.4053 101.59 80.8587 101.75 81.2453C101.897 81.6027 102.06 81.9173 102.225 82.2107C102.926 80.7307 103.052 79.2773 102.98 77.7627C102.886 75.888 102.452 73.9707 102.516 72.0293C102.588 69.76 103.036 68.2827 103.076 66.528C102.421 66.4432 101.762 66.4005 101.102 66.4ZM79.1449 66.7067C78.5918 66.7118 78.0409 66.778 77.5022 66.904C76.4287 67.1648 75.3947 67.5675 74.4276 68.1013C74.1004 68.2768 73.789 68.4802 73.4969 68.7093L73.4382 68.7627C73.4542 69.152 73.5316 70.096 73.5636 71.4853C73.5956 73.0053 73.5582 74.944 73.2649 77.0427C72.6276 81.6027 75.9369 85.3787 79.8249 85.384C80.0516 84.448 80.4249 83.4987 80.7982 82.4987C81.8809 79.5813 84.0116 77.4533 82.2169 69.1493C81.9236 67.7893 81.3422 67.24 80.5422 66.9307C80.0938 66.7721 79.6204 66.6962 79.1449 66.7067ZM100.257 67.2507H100.39C100.566 67.256 100.729 67.2747 100.87 67.3093C101.014 67.3413 101.137 67.3893 101.238 67.456C101.29 67.4882 101.335 67.5309 101.369 67.5815C101.404 67.632 101.427 67.6892 101.438 67.7493L101.436 67.7707C101.441 67.8973 101.408 68.0225 101.342 68.1307C101.264 68.277 101.165 68.4117 101.049 68.5307C100.778 68.8286 100.416 69.0275 100.02 69.096C99.6337 69.1426 99.2442 69.0448 98.9262 68.8213C98.7961 68.7338 98.6793 68.6278 98.5796 68.5067C98.4933 68.4115 98.4351 68.2943 98.4116 68.168C98.406 68.1065 98.4131 68.0445 98.4323 67.9858C98.4516 67.9271 98.4826 67.8729 98.5236 67.8267C98.6111 67.7272 98.717 67.6457 98.8356 67.5867C99.0916 67.4427 99.4382 67.336 99.8302 67.2773C99.9769 67.256 100.121 67.2453 100.257 67.2427V67.2507ZM79.4036 67.6987C79.5449 67.6987 79.6942 67.712 79.8462 67.7333C80.2542 67.7893 80.6169 67.8987 80.8942 68.0587C81.0295 68.1293 81.1499 68.2252 81.2489 68.3413C81.3028 68.4029 81.3434 68.475 81.3682 68.553C81.393 68.631 81.4014 68.7133 81.3929 68.7947C81.3673 68.948 81.2978 69.0906 81.1929 69.2053C81.0838 69.3393 80.9553 69.4561 80.8116 69.552C80.4648 69.7977 80.0388 69.9051 79.6169 69.8533C79.1858 69.7825 78.7912 69.5683 78.4969 69.2453C78.3717 69.1153 78.2657 68.968 78.1822 68.808C78.0943 68.6672 78.0559 68.5011 78.0729 68.336C78.1129 68.048 78.3502 67.8987 78.5822 67.816C78.8465 67.7316 79.1238 67.6954 79.4009 67.7093L79.4036 67.6987ZM103.564 87.28L103.556 87.2827C103.164 87.424 102.841 87.4827 102.569 87.6027C102.294 87.7086 102.067 87.9116 101.932 88.1733C101.764 88.48 101.62 89.024 101.662 89.9493C101.783 90.0324 101.916 90.0954 102.057 90.136C102.513 90.2747 103.278 90.3653 104.132 90.352C105.833 90.3333 107.926 89.936 109.038 89.4187C109.95 88.9949 110.797 88.4426 111.553 87.7787C107.838 88.5467 105.737 88.3413 104.449 87.8107C104.129 87.6776 103.831 87.5005 103.564 87.28ZM82.1476 87.5307H82.0916C81.9502 87.544 81.7449 87.592 81.3476 88.032C80.4196 89.072 80.0942 89.7253 79.3289 90.336C78.5636 90.944 77.5689 91.2693 75.5822 91.6773C74.9529 91.8053 74.5929 91.9467 74.3529 92.0613C74.4302 92.1253 74.4222 92.1413 74.5396 92.2027C74.8302 92.3627 75.2036 92.504 75.5049 92.5813C76.3582 92.7947 77.7609 93.0427 79.2249 92.7947C80.6889 92.544 82.2116 91.8427 83.5102 90.0213C83.7342 89.7067 83.7582 89.2427 83.5742 88.744C83.3876 88.2453 82.9796 87.816 82.6916 87.696C82.5202 87.6133 82.3364 87.5592 82.1476 87.536V87.5307Z" fill="#336691"/>
</g>
<defs>
<filter id="filter0_d_36_45" x="0.571533" y="0" width="168" height="168" filterUnits="userSpaceOnUse" color-interpolation-filters="sRGB">
<feFlood flood-opacity="0" result="BackgroundImageFix"/>
<feColorMatrix in="SourceAlpha" type="matrix" values="0 0 0 0 0 0 0 0 0 0 0 0 0 0 0 0 0 0 127 0" result="hardAlpha"/>
<feOffset dy="4"/>
<feGaussianBlur stdDeviation="20"/>
<feComposite in2="hardAlpha" operator="out"/>
<feColorMatrix type="matrix" values="0 0 0 0 0 0 0 0 0 0 0 0 0 0 0 0 0 0 0.25 0"/>
<feBlend mode="normal" in2="BackgroundImageFix" result="effect1_dropShadow_36_45"/>
<feBlend mode="normal" in="SourceGraphic" in2="effect1_dropShadow_36_45" result="shape"/>
</filter>
<radialGradient id="paint0_radial_36_45" cx="0" cy="0" r="1" gradientUnits="userSpaceOnUse" gradientTransform="translate(84.5715 36) rotate(90) scale(88)">
<stop stop-color="#494955"/>
<stop offset="1" stop-color="#141414"/>
</radialGradient>
</defs>
</svg>
