<svg width="169" height="168" viewBox="0 0 169 168" fill="none" xmlns="http://www.w3.org/2000/svg">
<g filter="url(#filter0_d_36_474)">
<rect x="40.7144" y="36" width="88" height="88" rx="40" fill="url(#paint0_radial_36_474)"/>
<g clip-path="url(#clip0_36_474)">
<path d="M82.6209 48.05C82.4834 48.0625 82.0459 48.1062 81.6522 48.1375C72.5718 48.9561 64.0664 53.8557 58.6795 61.3862C55.6797 65.5733 53.7612 70.3228 53.0363 75.3536C52.78 77.1096 52.7488 77.6283 52.7488 80.0094C52.7488 82.3904 52.78 82.9091 53.0363 84.6652C54.7736 96.6702 63.3165 106.757 74.9029 110.494C76.9777 111.163 79.1649 111.619 81.6522 111.894C82.6209 112 86.808 112 87.7766 111.894C92.0699 111.419 95.7071 110.356 99.2942 108.525C99.8442 108.244 99.9504 108.169 99.8754 108.107C99.8254 108.069 97.4819 104.926 94.6697 101.126L89.5577 94.2205L83.1521 84.7402C79.6274 79.5282 76.7277 75.2661 76.7027 75.2661C76.6777 75.2598 76.6527 79.4719 76.6402 84.6152C76.6214 93.6205 76.6152 93.983 76.5027 94.1955C76.3402 94.5017 76.2152 94.6267 75.9528 94.7642C75.7528 94.8642 75.5778 94.8829 74.6341 94.8829H73.553L73.2655 94.7017C73.078 94.5829 72.9406 94.4267 72.8468 94.2455L72.7156 93.9643L72.7281 81.4342L72.7468 68.8979L72.9406 68.6542C73.0405 68.523 73.253 68.3543 73.403 68.273C73.6592 68.148 73.7592 68.1355 74.8404 68.1355C76.1152 68.1355 76.3277 68.1855 76.6589 68.548C76.7527 68.648 80.2211 73.8725 84.3707 80.1656C88.5203 86.4587 94.1947 95.0516 96.982 99.27L102.044 106.938L102.3 106.769C104.569 105.294 106.968 103.195 108.868 101.007C112.912 96.364 115.518 90.7021 116.393 84.6652C116.649 82.9091 116.68 82.3904 116.68 80.0094C116.68 77.6283 116.649 77.1096 116.393 75.3536C114.655 63.3485 106.112 53.262 94.5259 49.5248C92.4824 48.8624 90.3076 48.4062 87.8703 48.1312C87.2704 48.0687 83.1396 48 82.6209 48.05ZM95.7071 67.3856C96.0071 67.5356 96.2508 67.8231 96.3383 68.123C96.3883 68.2855 96.4008 71.7602 96.3883 79.5907L96.3695 90.8271L94.3885 87.7899L92.4012 84.7527V76.5847C92.4012 71.304 92.4262 68.3355 92.4636 68.1918C92.5636 67.8418 92.7824 67.5668 93.0823 67.4043C93.3386 67.2731 93.4323 67.2606 94.4135 67.2606C95.3384 67.2606 95.5009 67.2731 95.7071 67.3856Z" fill="#FCFCFC"/>
<path d="M101.731 107.075C101.513 107.213 101.444 107.307 101.638 107.2C101.775 107.119 102 106.95 101.963 106.944C101.944 106.944 101.838 107.007 101.731 107.075ZM101.3 107.357C101.188 107.444 101.188 107.45 101.325 107.382C101.4 107.344 101.463 107.3 101.463 107.288C101.463 107.238 101.431 107.25 101.3 107.357ZM100.988 107.544C100.875 107.632 100.875 107.638 101.013 107.569C101.088 107.532 101.15 107.488 101.15 107.475C101.15 107.425 101.119 107.438 100.988 107.544ZM100.675 107.732C100.563 107.819 100.563 107.825 100.7 107.757C100.775 107.719 100.838 107.675 100.838 107.663C100.838 107.613 100.806 107.625 100.675 107.732ZM100.2 107.982C99.9628 108.107 99.9753 108.157 100.213 108.038C100.319 107.982 100.4 107.925 100.4 107.913C100.4 107.869 100.394 107.875 100.2 107.982Z" fill="#FCFCFC"/>
</g>
</g>
<defs>
<filter id="filter0_d_36_474" x="0.714355" y="0" width="168" height="168" filterUnits="userSpaceOnUse" color-interpolation-filters="sRGB">
<feFlood flood-opacity="0" result="BackgroundImageFix"/>
<feColorMatrix in="SourceAlpha" type="matrix" values="0 0 0 0 0 0 0 0 0 0 0 0 0 0 0 0 0 0 127 0" result="hardAlpha"/>
<feOffset dy="4"/>
<feGaussianBlur stdDeviation="20"/>
<feComposite in2="hardAlpha" operator="out"/>
<feColorMatrix type="matrix" values="0 0 0 0 0 0 0 0 0 0 0 0 0 0 0 0 0 0 0.25 0"/>
<feBlend mode="normal" in2="BackgroundImageFix" result="effect1_dropShadow_36_474"/>
<feBlend mode="normal" in="SourceGraphic" in2="effect1_dropShadow_36_474" result="shape"/>
</filter>
<radialGradient id="paint0_radial_36_474" cx="0" cy="0" r="1" gradientUnits="userSpaceOnUse" gradientTransform="translate(84.7144 36) rotate(90) scale(88)">
<stop stop-color="#494955"/>
<stop offset="1" stop-color="#141414"/>
</radialGradient>
<clipPath id="clip0_36_474">
<rect width="64" height="64" fill="white" transform="translate(52.7144 48)"/>
</clipPath>
</defs>
</svg>
